<svg xmlns="http://www.w3.org/2000/svg" viewBox="0 0 512 512">
  <rect width="512" height="512" rx="112" fill="#354f52"/>
  <circle cx="256" cy="256" r="172" fill="#f5f1e8"/>
  <path fill="#354f52" d="M190 190h132l-12 170c-2 24-20 42-44 42h-20c-24 0-42-18-44-42l-12-170Z"/>
  <path fill="#354f52" d="M214 150h84l14 24H200l14-24Z"/>
  <path fill="#f5f1e8" d="M222 226h24v126h-24V226Zm44 0h24v126h-24V226Z"/>
  <path fill="#6fbf73" d="M326 259c40 0 72 25 78 62-39 5-72-7-93-35 22-3 43 2 61 15-11-23-27-35-46-42Z"/>
  <path fill="#6fbf73" d="M184 254c-30 5-53 25-60 54 31 8 58 1 79-20-18-4-35-2-51 7 9-19 20-31 32-41Z"/>
</svg>
